<svg width="1920" height="900" viewBox="0 0 1920 900" fill="none" xmlns="http://www.w3.org/2000/svg">
<g id="backgroud-home" clip-path="url(#clip0_51_7)">
<rect width="1920" height="900" fill="url(#paint0_linear_51_7)"/>
<path id="Ellipse 7" d="M898.956 51.0619C869.89 108.735 751.456 175.885 698.113 149.001C644.771 122.117 589.574 -21.5855 618.64 -79.2582C647.706 -136.931 809.205 -145.913 862.548 -119.029C915.891 -92.1445 928.022 -6.61085 898.956 51.0619Z" fill="url(#paint1_linear_51_7)" fill-opacity="0.2"/>
<path id="Ellipse 8" d="M214.956 911.062C185.889 968.735 67.4561 1035.88 14.1133 1009C-39.2295 982.117 -94.426 838.415 -65.3598 780.742C-36.2936 723.069 125.205 714.087 178.548 740.971C231.891 767.855 244.022 853.389 214.956 911.062Z" fill="url(#paint2_linear_51_7)" fill-opacity="0.2"/>
<path id="Ellipse 9" d="M2073.85 477.813C2054.85 539.539 1949.34 625.576 1892.25 608.006C1835.15 590.435 1756.67 458.007 1775.67 396.281C1794.66 334.555 1952.38 298.652 2009.47 316.223C2066.56 333.793 2092.85 416.087 2073.85 477.813Z" fill="url(#paint3_linear_51_7)" fill-opacity="0.2"/>
</g>
<defs>
<linearGradient id="paint0_linear_51_7" x1="48.75" y1="40" x2="1745.85" y2="1163.15" gradientUnits="userSpaceOnUse">
<stop stop-color="#9242D6"/>
<stop offset="1" stop-color="#6E27A9"/>
</linearGradient>
<linearGradient id="paint1_linear_51_7" x1="702.117" y1="144.195" x2="851.477" y2="-89.6195" gradientUnits="userSpaceOnUse">
<stop stop-color="#A94BF2"/>
<stop offset="1" stop-color="#A157FF"/>
</linearGradient>
<linearGradient id="paint2_linear_51_7" x1="18.1174" y1="1004.19" x2="167.477" y2="770.381" gradientUnits="userSpaceOnUse">
<stop stop-color="#A94BF2"/>
<stop offset="1" stop-color="#A157FF"/>
</linearGradient>
<linearGradient id="paint3_linear_51_7" x1="1895.39" y1="602.597" x2="2003.48" y2="347.071" gradientUnits="userSpaceOnUse">
<stop stop-color="#A94BF2"/>
<stop offset="1" stop-color="#A157FF"/>
</linearGradient>
<clipPath id="clip0_51_7">
<rect width="1920" height="900" fill="white"/>
</clipPath>
</defs>
</svg>
