<svg width="509" height="478" viewBox="0 0 509 478" fill="none" xmlns="http://www.w3.org/2000/svg">
<g id="imageHome">
<path id="Vector" d="M254.5 404.83C357.633 404.83 441.239 352.492 441.239 287.929C441.239 223.367 357.633 171.029 254.5 171.029C151.367 171.029 67.7606 223.367 67.7606 287.929C67.7606 352.492 151.367 404.83 254.5 404.83Z" fill="#B154FF"/>
<path id="Vector_2" opacity="0.32" d="M289.29 359.5C289.405 359.5 364.368 310.983 364.457 311.078L241.52 217.738L171.889 186.678L144.543 247.387C160.895 259.612 271.857 349.876 289.29 359.5Z" fill="url(#paint0_linear_64_461)"/>
<path id="Vector_3" opacity="0.32" d="M151.529 377.86C157.892 380.286 164.254 382.617 170.833 384.329C174.83 385.214 178.868 385.791 182.922 386.057L189.717 380.318L236.799 336.748L203.549 308.034L115.747 358.77C126.219 368.41 139.211 373.151 151.529 377.86Z" fill="url(#paint1_linear_64_461)"/>
<path id="Vector_4" d="M196.779 290.45C192.046 286.328 186.472 284.108 180.453 285.694C174.091 287.454 168.492 292.48 161.951 293.701C160.92 293.891 156.798 293.558 156.161 294.303C137.977 315.787 188.801 313.52 188.801 313.52C193.738 308.493 198.383 303.531 203.282 298.441C201.806 294.287 199.312 292.67 196.779 290.45Z" fill="#F8997C"/>
<path id="Vector_5" d="M172.844 321.542L171.037 386.232C170.973 388.689 174.027 388.689 174.091 386.232L175.898 321.542C175.974 319.085 172.92 319.085 172.844 321.542Z" fill="#844040"/>
<path id="Vector_6" d="M210.968 356.154C201.712 344.865 192.869 333.085 184.436 320.813C183.164 318.942 181 321.653 182.273 323.508C190.697 335.77 199.541 347.55 208.805 358.85C210.204 360.562 212.38 357.914 210.968 356.154Z" fill="#844040"/>
<path id="Vector_7" d="M162.244 315.549C155.058 332.461 148.272 349.622 141.884 367.031C141.069 369.251 143.716 371.185 144.531 368.95C150.876 351.53 157.663 334.369 164.891 317.468C165.807 315.311 163.16 313.377 162.244 315.549Z" fill="#844040"/>
<path id="Vector_8" d="M202.429 296.507C199.366 301.733 195.054 305.617 190.112 307.606C183.164 310.206 173.06 308.969 169.408 300.058C162.766 283.839 169.001 263.591 161.989 247.736C161.172 245.733 160.026 243.967 158.625 242.552C157.224 241.137 155.6 240.105 153.858 239.523C149.315 238.302 146.223 242.504 144.543 247.451C141.591 256.298 141.693 267.317 141.833 276.751C141.84 284.371 142.291 291.981 143.182 299.519C143.182 299.519 147.432 331.135 180.568 322.652C186.296 321.375 191.803 318.87 196.843 315.248C199.417 313.426 201.675 310.984 203.486 308.065C205.522 304.45 204.185 300.138 202.429 296.507Z" fill="#68E1FD"/>
<path id="Vector_9" d="M306.952 86.4409C306.952 86.4409 302.804 90.1193 301.862 108.496C300.921 126.872 300.005 138.383 298.885 141.617C297.765 144.852 282.75 156.949 282.75 156.949L290.155 167.747L312.768 150.607" fill="#E6E6E6"/>
<path id="Vector_10" d="M332.135 221.02L332.135 285.662L335.978 285.662L336.805 219.355" fill="#895851"/>
<path id="Vector_11" d="M353.971 196.175L361.657 266.445L357.814 266.445L349.785 198.775" fill="#895851"/>
<path id="Vector_12" d="M276.425 245.342C276.425 245.342 272.849 259.961 272.048 261.451C271.246 262.941 259.526 272.55 259.717 275.578C259.908 278.606 264.336 279.795 267.098 279.542C269.859 279.288 285.765 271.028 286.758 268.602C287.75 266.176 287.75 245.358 287.75 245.358L276.425 245.342Z" fill="#5C2D1D"/>
<path id="Vector_13" d="M295.284 262.418C295.284 262.418 291.708 277.037 290.906 278.527C290.105 280.018 278.385 289.626 278.576 292.654C278.767 295.682 283.195 296.872 285.956 296.618C288.717 296.364 304.624 288.104 305.616 285.678C306.609 283.252 306.609 262.434 306.609 262.434L295.284 262.418Z" fill="#5C2D1D"/>
<path id="Vector_14" d="M356.058 129.361C355.04 132.913 349.288 186.82 349.288 186.82L343.511 184.41L351.045 129.076" fill="#895851"/>
<path id="Vector_15" d="M353.971 196.175L354.073 187.486L347.914 190.118L349.785 198.775" fill="#A9CBF8"/>
<path id="Vector_16" d="M340.025 182.73C340.025 182.73 355.511 190.134 354.022 197.428C352.533 204.721 340.05 222.574 332.122 221.036C324.195 219.498 314.536 210.904 314.536 210.904" fill="#A9CBF8"/>
<path id="Vector_17" d="M340.025 173.851C340.025 173.851 355.511 181.255 354.022 188.549C352.533 195.842 340.05 213.632 332.122 212.157C324.195 210.683 314.536 202.026 314.536 202.026" fill="#CBE3FF"/>
<path id="Vector_18" d="M346.12 106.165C346.12 106.165 361.085 110.81 362.662 121.544C364.24 132.278 364.622 152.066 343.371 144.376C322.121 136.686 332.122 116.82 332.122 116.82" fill="#CBE3FF"/>
<path id="Vector_19" d="M309.93 148.911C309.93 148.911 279.301 175.103 275.344 188.438C271.386 201.772 268.803 254.316 268.803 254.316C268.803 254.316 279.517 262.608 291.988 257.725L301.379 198.189C301.379 198.189 323.648 186.329 327.567 171.52C331.486 156.711 326.205 129.044 326.205 129.044" fill="#895851"/>
<path id="Vector_20" d="M327.032 164.243C327.032 164.243 296.492 190.435 292.51 203.77C288.527 217.104 285.969 269.648 285.969 269.648C285.969 269.648 296.683 277.94 309.154 273.057L318.545 213.521C318.545 213.521 340.814 201.661 344.733 186.852C348.652 172.043 343.371 144.376 343.371 144.376" fill="#895851"/>
<path id="Vector_21" d="M339.261 164.798C344.491 148.942 349.212 102.962 346.056 97.9678C342.353 92.038 321.306 82.3663 321.306 82.3663C318.828 81.5273 316.222 81.4617 313.719 82.1751C311.215 82.8885 308.891 84.3591 306.952 86.4569C301.862 91.8636 305.438 133.832 306.952 154.888C315.873 165.162 326.422 167.652 339.261 164.798Z" fill="#E6E6E6"/>
<path id="Vector_22" d="M317.311 169.538C311.801 176.404 305.858 182.999 300.768 190.309C296.314 196.651 294.558 204.705 292.828 212.696C288.794 231.294 287 250.479 285.193 269.569C285.078 270.726 286.542 270.711 286.643 269.569C288.361 251.209 290.105 232.769 293.846 214.837C295.691 206.053 297.523 197.301 302.575 190.467C307.627 183.634 313.06 177.339 318.303 170.807C318.397 170.634 318.441 170.427 318.426 170.219C318.412 170.011 318.34 169.816 318.223 169.667C318.106 169.518 317.952 169.423 317.785 169.4C317.619 169.376 317.451 169.425 317.311 169.538Z" fill="#5C2D1D"/>
<path id="Vector_23" d="M305.642 167.398C305.642 167.398 290.779 171.853 291.275 173.518C291.771 175.183 296.645 173.518 296.645 173.518C296.645 173.518 286.681 178.702 288.717 183.84C289.99 187.169 299.496 184.902 302.066 183.84C304.636 182.777 311.635 174.326 311.635 174.326L305.642 167.398Z" fill="#FFD8C6"/>
<path id="Vector_24" d="M332.122 116.82C332.122 116.82 328.928 145.644 326.498 149.529C324.068 153.413 298.885 167.239 298.885 167.239C298.885 167.239 307.105 171.837 306.914 182.714C306.914 182.714 338.625 172.852 341.755 163.783C344.886 154.714 354.149 108.987 346.056 97.8884C337.963 86.7897 332.122 116.82 332.122 116.82Z" fill="#E6E6E6"/>
<path id="Vector_25" d="M313.455 82.2552C313.455 82.2552 309.077 94.9394 318.545 99.6959C328.012 104.452 338.485 91.5463 338.485 91.5463C338.485 91.5463 324.411 80.4477 313.455 82.2552Z" fill="#6CA3D8"/>
<path id="Vector_26" d="M329.768 86.3142L333.395 88.1851L323.355 97.4287L321.535 93.132L316.305 94.3369C316.305 94.3369 317.374 83.0163 317.578 82.7626C317.781 82.5089 329.768 86.3142 329.768 86.3142Z" fill="#4687BC"/>
<path id="Vector_27" d="M341.285 64.101C340.228 58.2663 336.5 56.1734 332.288 56.1734C331.531 55.071 330.611 54.1611 329.578 53.4938C326.371 51.5912 321.943 51.7973 319.27 54.794C318.204 54.3325 317.061 54.2179 315.949 54.461C312.641 55.2379 311.584 59.2176 311.686 62.8801C311.686 63.0228 311.686 63.1655 311.686 63.3241C310.935 69.6662 315.364 73.5665 315.364 73.5665L329.361 87.535C331.262 86.8281 332.988 85.5294 334.375 83.7615C334.849 83.0456 335.215 82.2292 335.456 81.3515C335.591 81.261 335.719 81.1548 335.838 81.0344C339.758 77.0864 342.443 70.4906 341.285 64.101Z" fill="#895851"/>
<path id="Vector_28" d="M315.847 68.5564C315.847 70.7444 315.3 91.3562 322.77 91.6099C330.239 91.8635 332.95 78.7671 332.95 78.7671C332.95 78.7671 326.816 74.835 326.816 71.6481C326.816 68.4612 327.312 67.1928 324.271 65.5439C321.23 63.8949 315.784 64.8938 315.847 68.5564Z" fill="#FFE0CE"/>
<path id="Vector_29" d="M367.282 240.871C367.282 240.871 366.124 309.159 364.457 311.11C362.79 313.06 355.447 248.164 355.447 248.164" fill="#844040"/>
<path id="Vector_30" d="M173.696 181.24C173.696 181.24 156.543 273.517 159.495 275.959C162.447 278.4 183.482 189.738 183.482 189.738" fill="#844040"/>
<path id="Vector_31" d="M290.194 275.784C291.326 279.827 287.432 358.469 289.29 359.547C291.148 360.626 301.074 276.672 301.074 276.672" fill="#844040"/>
<path id="Vector_32" d="M379.536 225.491L379.536 239.539L375.731 239.539L374.42 231.802" fill="#A85C5C"/>
<path id="Vector_33" d="M157.383 180.986L157.383 167.192L162.04 174.834L157.383 180.986Z" fill="#A85C5C"/>
<path id="Vector_34" d="M161.887 170.426L220.995 127.902C223.09 126.395 225.467 125.602 227.886 125.602C230.305 125.602 232.681 126.395 234.776 127.902L374.955 228.742C376.355 229.749 377.518 231.198 378.327 232.943C379.136 234.688 379.561 236.668 379.561 238.683C379.561 240.698 379.136 242.677 378.327 244.422C377.518 246.167 376.355 247.617 374.955 248.624L315.745 291.227C313.741 292.669 311.468 293.428 309.154 293.428C306.84 293.428 304.566 292.669 302.562 291.227L161.887 190.023C160.508 189.029 159.363 187.6 158.567 185.88C157.771 184.16 157.352 182.21 157.352 180.225C157.352 178.239 157.771 176.289 158.567 174.569C159.363 172.849 160.508 171.42 161.887 170.426Z" fill="#A85C5C"/>
<path id="Vector_35" d="M161.226 157.885L220.333 115.329C222.431 113.816 224.813 113.02 227.237 113.02C229.661 113.02 232.042 113.816 234.14 115.329L374.319 216.168C375.719 217.176 376.882 218.625 377.691 220.37C378.499 222.115 378.925 224.095 378.925 226.11C378.925 228.125 378.499 230.104 377.691 231.849C376.882 233.594 375.719 235.043 374.319 236.051L315.084 278.638C313.08 280.08 310.806 280.839 308.492 280.839C306.178 280.839 303.905 280.08 301.901 278.638L161.226 177.482C159.847 176.487 158.702 175.059 157.906 173.339C157.109 171.619 156.69 169.669 156.69 167.683C156.69 165.698 157.109 163.747 157.906 162.028C158.702 160.308 159.847 158.879 161.226 157.885Z" fill="#C96F6F"/>
<path id="Vector_36" d="M238.263 184.173C239.166 184.458 266.054 204.784 266.054 204.784L305.4 176.959L278.41 156.949L238.263 184.173Z" fill="white"/>
<path id="Vector_37" d="M235.285 206.798C236.189 207.084 263.077 227.41 263.077 227.41L302.397 199.6L275.433 179.591L235.285 206.798Z" fill="#B154FF"/>
<path id="Vector_38" d="M225.372 326.838C225.372 326.838 225.105 332.609 226.53 334.226C227.956 335.844 235.692 331.357 237.754 332.942C239.815 334.528 229.992 346.102 226.53 346.736C223.069 347.37 219.863 341.234 219.863 341.234L219.863 349.987L215.943 352.761L213.067 350.621L213.92 326.838L225.372 326.838Z" fill="#8787D1"/>
<path id="Vector_39" d="M212.126 331.087C216.249 335.511 220.677 335.368 225.792 332.673C229.47 324.618 233.796 275.594 224.609 267.666C214.734 259.247 199.299 260.753 196.716 261.673L158.897 269.395C155.996 275.546 163.682 307.764 180.53 308.668C197.377 309.572 208.041 301.692 208.041 301.692L212.126 331.087Z" fill="#124577"/>
<path id="Vector_40" d="M197.428 196.445C195.638 197.414 194.151 199.084 193.191 201.201L193.191 201.36C190.531 204.071 190.112 209.018 187.287 211.46C187.287 211.555 184.627 213.885 184.602 213.981C184.576 214.076 184.856 209.446 184.843 209.478C183.927 212.649 183.024 215.82 182.298 218.991C182.425 219.088 182.562 219.163 182.706 219.213L182.413 219.387L182.158 219.577C182.124 219.738 182.06 219.886 181.972 220.009C181.883 220.133 181.773 220.23 181.649 220.291C181.541 220.757 181.544 221.251 181.657 221.715C181.77 222.179 181.988 222.593 182.286 222.905C182.584 223.217 182.948 223.415 183.334 223.474C183.72 223.534 184.112 223.452 184.462 223.24L193.013 218.039C194.151 217.735 195.269 217.327 196.36 216.819C196.36 215.709 196.499 214.599 196.589 213.489C197.263 212.191 197.669 210.705 197.769 209.163C197.869 207.622 197.66 206.074 197.161 204.658C197.205 204.586 197.256 204.522 197.314 204.467L197.314 204.356C198.021 203.739 198.622 202.953 199.083 202.044C199.544 201.135 199.855 200.121 199.999 199.061C200.012 197.586 198.79 195.668 197.428 196.445Z" fill="#F7931E"/>
<path id="Vector_41" d="M186.549 206.529C186.549 206.529 196.296 214.076 197.314 220.354C197.314 220.354 190.468 238.889 190.951 239.618C198.688 252.192 175.49 231.691 175.49 231.691C175.49 231.691 180.161 214.06 186.549 206.529Z" fill="#68E1FD"/>
<path id="Vector_42" d="M208.69 211.126C209.492 219.514 200.902 231.199 197.237 233.451C192.275 236.542 190.341 210.825 168.53 210.936C167.117 210.936 160.042 207.178 156.327 218.769C152.611 230.359 156.327 263.576 158.808 269.363C160.997 274.468 175.541 286.803 196.321 273.612L196.627 261.641C196.627 261.641 208.881 261.308 215.383 250.083C221.44 239.602 225.029 223.874 224.456 216.153C219.633 213.505 213.564 209.16 208.69 211.126Z" fill="#68E1FD"/>
<path id="Vector_43" d="M186.549 206.529C186.549 206.529 196.296 214.076 197.314 220.354C197.314 220.354 190.468 238.889 190.951 239.618C198.688 252.192 175.49 231.691 175.49 231.691C175.49 231.691 180.161 214.06 186.549 206.529Z" fill="#8787D1"/>
<path id="Vector_44" d="M199.668 174.691L225.551 181.81L221.186 227.045L196.296 216.993" fill="#124577"/>
<path id="Vector_45" d="M226.378 200.948C226.312 200.587 226.185 200.248 226.004 199.955C225.824 199.661 225.595 199.42 225.333 199.247C225.071 199.074 224.782 198.973 224.485 198.952C224.189 198.931 223.893 198.989 223.616 199.124C223.487 198.493 223.191 197.935 222.777 197.539C222.44 197.224 222.035 197.044 221.615 197.022C221.195 196.999 220.779 197.135 220.422 197.412C220.198 197.571 219.996 197.775 219.824 198.014L219.697 197.84C219.414 197.424 219.036 197.124 218.614 196.98C218.192 196.836 217.744 196.854 217.33 197.031C217.085 197.171 216.864 197.371 216.681 197.618C216.441 196.139 216.135 194.678 215.765 193.242C215.421 191.799 214.849 189.151 213.424 188.834C212.495 188.628 212.062 189.468 211.871 190.42C211.636 191.101 211.6 191.865 211.769 192.576C211.835 193.551 211.949 194.52 212.113 195.477C212.24 196.841 212.355 198.205 212.457 199.568C212.267 199.566 212.084 199.658 211.948 199.822C211.269 200.446 210.767 201.324 210.515 202.327C210.263 203.331 210.275 204.408 210.548 205.403C211.164 208.259 212.017 211.027 213.093 213.663C213.136 213.78 213.198 213.884 213.275 213.97C213.352 214.055 213.442 214.12 213.54 214.16C213.638 214.2 213.741 214.215 213.844 214.203C213.946 214.191 214.046 214.153 214.136 214.092L214.251 214.599C214.293 214.829 214.399 215.032 214.551 215.174C214.702 215.316 214.888 215.386 215.077 215.373C215.266 215.359 215.445 215.263 215.583 215.101C215.72 214.939 215.807 214.722 215.829 214.488L215.829 214.298C215.908 214.377 215.998 214.437 216.096 214.472L216.16 215.582C216.16 216.597 217.432 216.597 217.699 215.756L217.776 216.565C217.877 217.691 219.303 217.564 219.354 216.454L219.354 215.55C219.487 215.543 219.618 215.5 219.737 215.423C219.855 215.346 219.959 215.238 220.041 215.106C220.178 215.328 220.378 215.475 220.601 215.518C220.708 215.627 220.837 215.696 220.974 215.718C221.111 215.74 221.251 215.715 221.377 215.645L221.377 215.883C221.445 216.151 221.591 216.376 221.787 216.515C221.983 216.653 222.214 216.694 222.433 216.628C222.433 216.739 222.433 216.85 222.433 216.961C222.433 218.23 224.049 218.404 224.024 217.12C224.024 214.572 223.968 212.025 223.858 209.478C223.945 209.423 224.023 209.347 224.087 209.256C225.754 207.21 227.179 203.786 226.378 200.948ZM217.827 199.029C217.891 198.975 217.965 198.94 218.042 198.927C218.119 198.913 218.198 198.921 218.272 198.95C218.23 199.024 218.196 199.104 218.17 199.188L217.687 199.188C217.724 199.11 217.771 199.04 217.827 198.981L217.827 199.029Z" fill="#F7931E"/>
<path id="Vector_46" d="M180.161 180.336C180.161 180.621 181.509 197.602 178.455 201.344C175.401 205.086 167.296 203.548 165.285 199.457C163.274 195.366 160.806 189.944 162.956 183.602C165.107 177.26 179.804 176.15 180.161 180.336Z" fill="#F7931E"/>
<path id="Vector_47" d="M175.809 191.434C175.913 191.137 175.947 190.809 175.906 190.489C175.866 190.169 175.752 189.869 175.58 189.627C174.644 188.183 173.343 187.178 171.889 186.773C171.231 186.578 170.537 186.692 169.941 187.093C169.346 187.493 168.889 188.152 168.657 188.945C167.728 192.798 172.742 193.94 174.791 194.257C175.151 194.253 175.495 194.072 175.75 193.755C176.004 193.438 176.149 193.009 176.152 192.56C176.161 192.143 176.038 191.739 175.809 191.434Z" fill="#FFE8E6"/>
<path id="Vector_48" d="M208.69 211.126C209.492 219.514 200.902 231.199 197.237 233.451C192.275 236.542 190.341 210.825 168.53 210.936C167.117 210.936 160.042 207.178 156.327 218.769C152.611 230.359 156.327 263.576 158.808 269.363C160.997 274.468 175.541 286.803 196.321 273.612L196.627 261.641C196.627 261.641 208.881 261.308 215.383 250.083C221.44 239.602 225.029 223.874 224.456 216.153C219.633 213.505 213.564 209.16 208.69 211.126Z" fill="#8787D1"/>
<path id="Vector_49" d="M207.036 258.708C201.383 261.224 195.216 261.309 189.52 258.949C183.823 256.59 178.925 251.923 175.605 245.691C175.172 244.866 174.091 245.691 174.536 246.468C177.995 253.008 183.114 257.915 189.075 260.404C195.036 262.893 201.494 262.821 207.417 260.198C208.105 259.865 207.786 258.375 207.036 258.708Z" fill="white"/>
<path id="Vector_50" d="M194.769 230.581C193.656 227.355 192.008 224.459 189.933 222.082C187.554 219.387 184.614 217.659 182.133 215.138C181.637 214.63 180.86 215.518 181.42 216.026C183.762 218.404 186.51 220.069 188.814 222.526C191.017 224.905 192.757 227.876 193.904 231.215C194.158 231.96 195.023 231.326 194.769 230.581Z" fill="white"/>
<path id="Vector_51" d="M180.479 182.73L176.139 185.568C176.139 185.568 179.499 201.423 180.504 205.672C181.509 209.922 177.476 215.725 164.369 216.153C151.262 216.581 151.924 191.862 154.952 182.635C157.981 173.407 167.054 169.221 174.447 171.742C176.406 172.227 178.135 173.648 179.262 175.703C180.39 177.757 180.827 180.279 180.479 182.73Z" fill="#B24D16"/>
<path id="Vector_52" d="M203.905 300.201C203.772 299.792 203.558 299.432 203.283 299.155C203.008 298.878 202.68 298.692 202.331 298.616C201.983 298.54 201.624 298.576 201.29 298.72C200.955 298.864 200.655 299.112 200.419 299.44C197.626 303.247 194.074 306.064 190.124 307.605C183.176 310.206 173.073 308.969 169.421 300.058C162.804 283.902 168.975 263.686 162.078 247.926C160.89 245.089 159.098 242.714 156.899 241.061C150.677 236.59 146.528 241.489 144.543 247.403C141.591 256.25 141.693 267.27 141.833 276.704C141.84 284.324 142.291 291.933 143.182 299.472C143.182 299.472 147.432 331.087 180.568 322.605C186.296 321.328 191.803 318.823 196.843 315.2C199.417 313.378 201.675 310.936 203.486 308.018C204.079 306.865 204.429 305.543 204.502 304.177C204.576 302.81 204.37 301.442 203.905 300.201Z" fill="white"/>
<path id="Vector_53" d="M330.303 114.632C329.997 120.118 329.705 125.619 329.348 131.105C328.941 137.241 328.292 143.171 325.238 148.213C320.008 156.854 311.33 160.104 303.351 163.038C303.268 163.066 303.189 163.114 303.121 163.18C303.052 163.246 302.995 163.328 302.952 163.421C302.865 163.61 302.841 163.834 302.887 164.044C302.932 164.255 303.043 164.434 303.195 164.542C303.346 164.651 303.526 164.68 303.695 164.623C311.928 161.595 320.848 158.17 326.256 149.244C328.584 145.17 329.982 140.387 330.303 135.402C330.965 128.537 331.194 121.576 331.575 114.679C331.626 113.617 330.354 113.617 330.303 114.632Z" fill="#B6BBBF"/>
<path id="Vector_54" d="M307.347 112.491L306.278 154.048C306.278 155.062 307.55 155.062 307.55 154.048L308.619 112.491C308.645 111.476 307.372 111.476 307.347 112.491Z" fill="#B6BBBF"/>
<path id="Vector_55" opacity="0.32" d="M303.453 256.187C305.858 257.107 308.276 258.01 310.757 258.629C312.268 258.962 313.794 259.179 315.326 259.279L317.871 257.107L335.686 240.633L322.082 235.004L289.914 248.973C293.948 252.62 298.796 254.411 303.453 256.187Z" fill="url(#paint2_linear_64_461)"/>
<path id="Vector_56" d="M328.572 222.733C325.308 222.54 322.182 221.032 319.665 218.436L319.665 230.28C319.665 233.543 320.705 236.672 322.557 238.98C324.409 241.287 326.92 242.583 329.539 242.583C332.158 242.583 334.67 241.287 336.522 238.98C338.374 236.672 339.414 233.543 339.414 230.28L339.414 218.23C335.94 219.974 332.122 223.145 328.572 222.733Z" fill="#B154FF"/>
<path id="Vector_57" d="M329.476 224.873C334.929 224.873 339.35 221.956 339.35 218.357C339.35 214.758 334.929 211.84 329.476 211.84C324.022 211.84 319.601 214.758 319.601 218.357C319.601 221.956 324.022 224.873 329.476 224.873Z" fill="#5ED18D"/>
<path id="Vector_58" d="M329.476 219.466C329.476 219.466 322.77 218.23 320.988 204.705C320.988 204.705 326.714 208.637 329.476 219.466Z" fill="#5ED18D"/>
<path id="Vector_59" d="M330.468 217.738C330.468 217.738 322.833 200.519 330.468 188.961C332.818 198.33 332.818 208.369 330.468 217.738Z" fill="#5ED18D"/>
<path id="Vector_60" d="M329.476 206.925C329.476 206.925 322.77 205.688 320.988 192.164C320.988 192.164 326.714 196.096 329.476 206.925Z" fill="#5ED18D"/>
<path id="Vector_61" d="M330.29 212.442C330.29 212.442 328.61 204.261 337.925 196.984C337.938 196.984 337.212 205.086 330.29 212.442Z" fill="#5ED18D"/>
<path id="Vector_62" d="M329.476 224.873C334.929 224.873 339.35 221.956 339.35 218.357C339.35 214.758 334.929 211.84 329.476 211.84C324.022 211.84 319.601 214.758 319.601 218.357C319.601 221.956 324.022 224.873 329.476 224.873Z" fill="#7C0ED8"/>
<path id="Vector_63" d="M329.476 219.466C329.476 219.466 322.77 218.23 320.988 204.705C320.988 204.705 326.714 208.637 329.476 219.466Z" fill="#5ED18D"/>
<path id="Vector_64" d="M330.468 217.738C330.468 217.738 322.833 200.519 330.468 188.961C332.818 198.33 332.818 208.369 330.468 217.738Z" fill="#5ED18D"/>
<path id="Vector_65" d="M329.476 206.925C329.476 206.925 322.77 205.688 320.988 192.164C320.988 192.164 326.714 196.096 329.476 206.925Z" fill="#5ED18D"/>
<path id="Vector_66" d="M330.29 212.442C330.29 212.442 328.61 204.261 337.925 196.984C337.938 196.984 337.212 205.086 330.29 212.442Z" fill="#5ED18D"/>
<path id="Vector_67" opacity="0.32" d="M192.148 173.47C194.553 174.39 196.97 175.294 199.452 175.912C200.966 176.293 194.743 176.419 196.27 176.562L198.625 174.501L224.367 157.932L205 147.769L178.608 166.272C182.527 169.903 187.439 171.695 192.148 173.47Z" fill="url(#paint3_linear_64_461)"/>
<path id="Vector_68" d="M198.637 120.799L198.637 154.967C198.637 154.967 224.991 156.791 224.991 154.967L224.991 120.799" fill="#B154FF"/>
<path id="Vector_69" d="M211.82 162.166C219.094 162.166 224.991 158.808 224.991 154.666C224.991 150.524 219.094 147.167 211.82 147.167C204.546 147.167 198.65 150.524 198.65 154.666C198.65 158.808 204.546 162.166 211.82 162.166Z" fill="#B154FF"/>
<path id="Vector_70" d="M211.82 128.299C219.094 128.299 224.991 124.941 224.991 120.799C224.991 116.657 219.094 113.3 211.82 113.3C204.546 113.3 198.65 116.657 198.65 120.799C198.65 124.941 204.546 128.299 211.82 128.299Z" fill="#3129A3"/>
<path id="Vector_71" d="M203.6 126.634L203.689 126.634C204.198 126.856 204.707 127.046 205.229 127.221L201.64 89.8181C201.333 89.6735 200.999 89.6369 200.676 89.7124C200.353 89.7879 200.053 89.9725 199.808 90.2462L203.486 126.523L203.6 126.634Z" fill="#F78B72"/>
<path id="Vector_72" d="M207.697 127.791L208.817 92.6879C208.536 92.4735 208.212 92.3601 207.882 92.3601C207.552 92.3601 207.228 92.4735 206.947 92.6879L206.031 127.443C206.58 127.598 207.137 127.715 207.697 127.791Z" fill="#F78B72"/>
<path id="Vector_73" d="M211.82 128.299L215.434 91.7048L222.764 96.4614L219.799 127.205C217.214 128.165 214.511 128.535 211.82 128.299Z" fill="#FCB749"/>
</g>
<defs>
<linearGradient id="paint0_linear_64_461" x1="234.674" y1="321.653" x2="290.107" y2="244.125" gradientUnits="userSpaceOnUse">
<stop stop-color="white" stop-opacity="0"/>
<stop offset="0.99" stop-color="#0048AA"/>
</linearGradient>
<linearGradient id="paint1_linear_64_461" x1="148.781" y1="373.04" x2="215.71" y2="334.887" gradientUnits="userSpaceOnUse">
<stop stop-color="white" stop-opacity="0"/>
<stop offset="0.99" stop-color="#0048AA"/>
</linearGradient>
<linearGradient id="paint2_linear_64_461" x1="306.838" y1="251.779" x2="327.184" y2="236.431" gradientUnits="userSpaceOnUse">
<stop stop-opacity="0"/>
<stop offset="0.99" stop-color="#552800"/>
</linearGradient>
<linearGradient id="paint3_linear_64_461" x1="195.494" y1="169.063" x2="215.828" y2="153.712" gradientUnits="userSpaceOnUse">
<stop stop-opacity="0"/>
<stop offset="0.99" stop-color="#552800"/>
</linearGradient>
</defs>
</svg>
