<svg width="1280" height="720" viewBox="0 0 1280 720" fill="none" xmlns="http://www.w3.org/2000/svg">
<g id="TV - 7" clip-path="url(#clip0_46_7)">
<rect width="1280" height="720" fill="url(#paint0_linear_46_7)"/>
<path id="Ellipse 2" d="M1457.96 437.062C1428.89 494.735 1310.46 561.885 1257.11 535.001C1203.77 508.117 1148.57 364.415 1177.64 306.742C1206.71 249.069 1368.21 240.087 1421.55 266.971C1474.89 293.855 1487.02 379.389 1457.96 437.062Z" fill="url(#paint1_linear_46_7)" fill-opacity="0.2"/>
<path id="Ellipse 4" d="M108.956 620.062C79.8895 677.735 -38.5439 744.885 -91.8867 718.001C-145.229 691.117 -200.426 547.415 -171.36 489.742C-142.293 432.069 19.2054 423.087 72.5482 449.971C125.891 476.855 138.022 562.389 108.956 620.062Z" fill="url(#paint2_linear_46_7)" fill-opacity="0.2"/>
<path id="Ellipse 5" d="M649.956 18.0618C620.889 75.7346 502.456 142.885 449.113 116.001C395.77 89.1168 340.574 -54.5854 369.64 -112.258C398.706 -169.931 560.205 -178.913 613.548 -152.029C666.891 -125.145 679.022 -39.6109 649.956 18.0618Z" fill="url(#paint3_linear_46_7)" fill-opacity="0.2"/>
</g>
<defs>
<linearGradient id="paint0_linear_46_7" x1="32.5" y1="32" x2="1280" y2="720" gradientUnits="userSpaceOnUse">
<stop stop-color="#7721BF"/>
<stop offset="1" stop-color="#470083"/>
</linearGradient>
<linearGradient id="paint1_linear_46_7" x1="1261.12" y1="530.195" x2="1410.48" y2="296.381" gradientUnits="userSpaceOnUse">
<stop stop-color="#A621BF"/>
<stop offset="1" stop-color="#A157FF"/>
</linearGradient>
<linearGradient id="paint2_linear_46_7" x1="-87.8825" y1="713.195" x2="61.4772" y2="479.381" gradientUnits="userSpaceOnUse">
<stop stop-color="#A621BF"/>
<stop offset="1" stop-color="#A157FF"/>
</linearGradient>
<linearGradient id="paint3_linear_46_7" x1="453.117" y1="111.195" x2="602.477" y2="-122.619" gradientUnits="userSpaceOnUse">
<stop stop-color="#A621BF"/>
<stop offset="1" stop-color="#A157FF"/>
</linearGradient>
<clipPath id="clip0_46_7">
<rect width="1280" height="720" fill="white"/>
</clipPath>
</defs>
</svg>
